<?xml version="1.0" encoding="utf-8"?>
<!-- Generator: Adobe Illustrator 18.0.0, SVG Export Plug-In . SVG Version: 6.00 Build 0)  -->
<!DOCTYPE svg PUBLIC "-//W3C//DTD SVG 1.1//EN" "http://www.w3.org/Graphics/SVG/1.1/DTD/svg11.dtd">
<svg version="1.1" id="Capa_1" xmlns="http://www.w3.org/2000/svg" xmlns:xlink="http://www.w3.org/1999/xlink" x="-16px" y="-16px"
	 width="32px" height="32px" viewBox="-6.2 -6.2 37.3 37.3" enable-background="new -6.2 -6.2 37.3 37.3" xml:space="preserve">
<circle fill="#f09505" cx="12.5" cy="12.5" r="18.7"/>
<g>
	<g id="directions-bus">
		<path d="M2,18.4c0,1.2,0.5,2.2,1.3,2.9v2.4c0,0.8,0.5,1.3,1.3,1.3h1.3c0.8,0,1.3-0.5,1.3-1.3v-1.3h10.5v1.3c0,0.8,0.5,1.3,1.3,1.3
			h1.3c0.8,0,1.3-0.5,1.3-1.3v-2.4c0.8-0.7,1.3-1.7,1.3-2.9V5.3C23,0.7,18.3,0,12.5,0S2,0.7,2,5.3V18.4z M6.6,19.7c-1.1,0-2-0.9-2-2
			s0.9-2,2-2s2,0.9,2,2S7.6,19.7,6.6,19.7z M18.4,19.7c-1.1,0-2-0.9-2-2s0.9-2,2-2s2,0.9,2,2S19.5,19.7,18.4,19.7z M20.4,11.8H4.6
			V5.3h15.8V11.8z" fill="white"/>
	</g>
</g>
</svg>
